<svg width="438" height="487" viewBox="0 0 438 487" fill="none" xmlns="http://www.w3.org/2000/svg">
<path fill-rule="evenodd" clip-rule="evenodd" d="M172 30H30V457H172V30ZM0 0V487H202V0H0ZM408 30H266V249H408V30ZM236 0V279H438V0H236ZM266 349H408V457H266V349ZM236 487V319H438V487H236ZM143 215H59V200H143V215ZM59 244H143V229H59V244ZM127 273H75V258H127V273ZM362 377H312.5V393H322.5V387H332.222L332.028 421.75H324.75V431.75H349.25V421.75H342.028L342.222 387H352V393H362V377ZM338 140C342.66 140 350 134.363 350 122.5C350 110.637 342.66 105 338 105C333.34 105 326 110.637 326 122.5C326 134.363 333.34 140 338 140ZM348.444 146.71C355.325 142.061 360 132.963 360 122.5C360 107.312 350.15 95 338 95C325.85 95 316 107.312 316 122.5C316 132.856 320.58 141.875 327.345 146.566C312.271 149.157 300.156 160.401 296.294 175C295.45 178.191 295 181.543 295 185H380C380 181.543 379.55 178.191 378.706 175C374.912 160.656 363.15 149.552 348.444 146.71ZM334 156H341C353.502 156 364.156 163.911 368.23 175H306.77C310.844 163.911 321.498 156 334 156Z" fill="#FF4785"/>
</svg>
