<svg width="490" height="490" viewBox="0 0 490 490" fill="none" xmlns="http://www.w3.org/2000/svg">
<path fill-rule="evenodd" clip-rule="evenodd" d="M129.479 439.022C157.426 426.036 188.514 407.117 220.72 383.04C200.815 366.537 180.833 348.364 161.178 328.709C141.523 309.054 123.35 289.072 106.847 269.167C82.7702 301.373 63.8511 332.461 50.8654 360.408C38.5692 386.87 32.3072 408.995 31.0907 425.687C29.8659 442.493 33.8774 449.807 36.9786 452.908C40.0797 456.01 47.3941 460.021 64.2 458.796C80.8923 457.58 103.017 451.318 129.479 439.022ZM182.391 307.496C203.143 328.248 224.168 347.188 244.943 364.118C265.719 347.188 286.744 328.248 307.496 307.496C328.248 286.743 347.188 265.719 364.118 244.944C347.188 224.168 328.248 203.144 307.496 182.391C286.743 161.639 265.719 142.699 244.943 125.769C224.168 142.699 203.144 161.639 182.391 182.391C161.639 203.143 142.699 224.168 125.769 244.944C142.699 265.719 161.639 286.744 182.391 307.496ZM15.7654 474.122C51.9219 510.278 145.403 478.409 244.943 402.336C344.484 478.409 437.965 510.278 474.122 474.122C510.278 437.965 478.409 344.484 402.336 244.944C478.409 145.403 510.278 51.9219 474.122 15.7653C437.965 -20.3912 344.484 11.4777 244.943 87.5511C145.403 11.4777 51.9219 -20.3912 15.7653 15.7654C-20.3912 51.9219 11.4777 145.403 87.551 244.944C11.4777 344.484 -20.3912 437.965 15.7654 474.122ZM439.022 360.408C426.036 332.461 407.117 301.373 383.04 269.167C366.537 289.072 348.364 309.054 328.709 328.709C309.054 348.364 289.072 366.537 269.166 383.04C301.373 407.117 332.461 426.036 360.408 439.022C386.87 451.318 408.995 457.58 425.687 458.796C442.493 460.021 449.807 456.01 452.908 452.909C456.01 449.807 460.021 442.493 458.796 425.687C457.58 408.995 451.318 386.87 439.022 360.408ZM439.022 129.479C426.036 157.426 407.117 188.514 383.04 220.721C366.537 200.815 348.364 180.833 328.709 161.178C309.054 141.523 289.072 123.35 269.166 106.847C301.373 82.7702 332.461 63.8511 360.408 50.8654C386.87 38.5692 408.995 32.3072 425.687 31.0907C442.493 29.8659 449.807 33.8774 452.908 36.9785C456.01 40.0797 460.021 47.3941 458.796 64.2C457.58 80.8922 451.318 103.017 439.022 129.479ZM129.479 50.8654C157.426 63.8512 188.514 82.7702 220.72 106.847C200.815 123.35 180.833 141.523 161.178 161.178C141.523 180.833 123.35 200.815 106.847 220.721C82.7702 188.514 63.8511 157.426 50.8654 129.479C38.5692 103.017 32.3072 80.8923 31.0907 64.2C29.8659 47.3941 33.8774 40.0797 36.9785 36.9786C40.0797 33.8774 47.3941 29.866 64.2 31.0907C80.8922 32.3072 103.017 38.5693 129.479 50.8654ZM267.887 244.887C267.887 257.59 257.59 267.887 244.887 267.887C232.184 267.887 221.887 257.59 221.887 244.887C221.887 232.184 232.184 221.887 244.887 221.887C257.59 221.887 267.887 232.184 267.887 244.887ZM297.887 244.887C297.887 274.158 274.158 297.887 244.887 297.887C215.616 297.887 191.887 274.158 191.887 244.887C191.887 215.616 215.616 191.887 244.887 191.887C274.158 191.887 297.887 215.616 297.887 244.887Z" fill="#FF4785"/>
</svg>
