<svg width="1920" height="540" viewBox="0 0 1920 540" fill="none" xmlns="http://www.w3.org/2000/svg">
<g clip-path="url(#clip0_26_13)">
<rect width="1920" height="540" rx="20" fill="white"/>
<path d="M1920 0H0V1080H1268.83L1920 536.245V0Z" fill="#FF4785"/>
<g style="mix-blend-mode:soft-light">
<path d="M1 441L728 0H1V441Z" fill="#FF4785"/>
</g>
<g style="mix-blend-mode:soft-light">
<path d="M1469 582.5L408 -1H916L1922 536L1266 1084H863.5L1469 582.5Z" fill="#FF4785"/>
</g>
<rect width="1920" height="540" fill="url(#paint0_linear_26_13)"/>
<path d="M145.334 199.918C139.69 199.918 134.522 199.204 129.83 197.776C125.138 196.28 121.16 194.206 117.896 191.554L121.262 183.19C124.662 185.774 128.3 187.712 132.176 189.004C136.052 190.296 140.438 190.942 145.334 190.942C151.114 190.942 155.364 189.922 158.084 187.882C160.872 185.774 162.266 183.054 162.266 179.722C162.266 177.002 161.28 174.86 159.308 173.296C157.336 171.664 154.038 170.372 149.414 169.42L138.5 167.176C132.04 165.816 127.212 163.572 124.016 160.444C120.888 157.316 119.324 153.1 119.324 147.796C119.324 143.512 120.446 139.738 122.69 136.474C125.002 133.21 128.198 130.694 132.278 128.926C136.358 127.09 141.05 126.172 146.354 126.172C151.25 126.172 155.772 126.92 159.92 128.416C164.136 129.844 167.706 131.952 170.63 134.74L167.162 142.798C161.382 137.698 154.412 135.148 146.252 135.148C141.22 135.148 137.208 136.27 134.216 138.514C131.292 140.758 129.83 143.75 129.83 147.49C129.83 150.346 130.748 152.624 132.584 154.324C134.42 156.024 137.48 157.316 141.764 158.2L152.576 160.444C159.376 161.872 164.442 164.082 167.774 167.074C171.106 169.998 172.772 173.976 172.772 179.008C172.772 183.224 171.65 186.896 169.406 190.024C167.162 193.152 164 195.6 159.92 197.368C155.84 199.068 150.978 199.918 145.334 199.918ZM200.865 199V135.964H175.365V127.09H236.871V135.964H211.371V199H200.865ZM272.406 199.918C265.538 199.918 259.588 198.422 254.556 195.43C249.524 192.37 245.614 188.086 242.826 182.578C240.106 177.002 238.746 170.474 238.746 162.994C238.746 155.446 240.106 148.918 242.826 143.41C245.614 137.902 249.524 133.652 254.556 130.66C259.588 127.668 265.538 126.172 272.406 126.172C279.206 126.172 285.122 127.668 290.154 130.66C295.254 133.652 299.164 137.902 301.884 143.41C304.672 148.918 306.066 155.412 306.066 162.892C306.066 170.44 304.672 177.002 301.884 182.578C299.164 188.086 295.254 192.37 290.154 195.43C285.122 198.422 279.206 199.918 272.406 199.918ZM272.406 190.738C279.546 190.738 285.088 188.324 289.032 183.496C293.044 178.6 295.05 171.766 295.05 162.994C295.05 154.222 293.078 147.422 289.134 142.594C285.19 137.766 279.614 135.352 272.406 135.352C265.266 135.352 259.69 137.766 255.678 142.594C251.734 147.422 249.762 154.222 249.762 162.994C249.762 171.766 251.734 178.6 255.678 183.496C259.69 188.324 265.266 190.738 272.406 190.738ZM320.284 199V127.09H350.068C357.82 127.09 363.804 128.96 368.02 132.7C372.236 136.372 374.344 141.54 374.344 148.204C374.344 153.576 372.916 157.996 370.06 161.464C367.204 164.864 363.158 167.142 357.922 168.298C361.186 169.386 363.94 172.004 366.184 176.152L378.628 199H367L354.556 176.05C353.128 173.398 351.462 171.63 349.558 170.746C347.722 169.794 345.342 169.318 342.418 169.318H330.892V199H320.284ZM330.892 161.362H348.334C358.806 161.362 364.042 157.044 364.042 148.408C364.042 139.84 358.806 135.556 348.334 135.556H330.892V161.362ZM405.854 199V165.442L378.314 127.09H390.554L411.362 156.16L432.17 127.09H443.9L416.36 165.544V199H405.854ZM453.063 199V127.09H483.051C490.531 127.09 496.311 128.756 500.391 132.088C504.539 135.352 506.613 139.942 506.613 145.858C506.613 149.734 505.593 153.066 503.553 155.854C501.513 158.642 498.725 160.682 495.189 161.974C499.337 163.062 502.567 165.068 504.879 167.992C507.191 170.916 508.347 174.622 508.347 179.11C508.347 185.502 506.205 190.432 501.921 193.9C497.705 197.3 491.823 199 484.275 199H453.063ZM463.263 158.506H481.419C491.347 158.506 496.311 154.63 496.311 146.878C496.311 139.126 491.347 135.25 481.419 135.25H463.263V158.506ZM463.263 190.84H483.051C493.047 190.84 498.045 186.794 498.045 178.702C498.045 170.678 493.047 166.666 483.051 166.666H463.263V190.84ZM553.803 199.918C546.935 199.918 540.985 198.422 535.953 195.43C530.921 192.37 527.011 188.086 524.223 182.578C521.503 177.002 520.143 170.474 520.143 162.994C520.143 155.446 521.503 148.918 524.223 143.41C527.011 137.902 530.921 133.652 535.953 130.66C540.985 127.668 546.935 126.172 553.803 126.172C560.603 126.172 566.519 127.668 571.551 130.66C576.651 133.652 580.561 137.902 583.281 143.41C586.069 148.918 587.463 155.412 587.463 162.892C587.463 170.44 586.069 177.002 583.281 182.578C580.561 188.086 576.651 192.37 571.551 195.43C566.519 198.422 560.603 199.918 553.803 199.918ZM553.803 190.738C560.943 190.738 566.485 188.324 570.429 183.496C574.441 178.6 576.447 171.766 576.447 162.994C576.447 154.222 574.475 147.422 570.531 142.594C566.587 137.766 561.011 135.352 553.803 135.352C546.663 135.352 541.087 137.766 537.075 142.594C533.131 147.422 531.159 154.222 531.159 162.994C531.159 171.766 533.131 178.6 537.075 183.496C541.087 188.324 546.663 190.738 553.803 190.738ZM632.892 199.918C626.024 199.918 620.074 198.422 615.042 195.43C610.01 192.37 606.1 188.086 603.312 182.578C600.592 177.002 599.232 170.474 599.232 162.994C599.232 155.446 600.592 148.918 603.312 143.41C606.1 137.902 610.01 133.652 615.042 130.66C620.074 127.668 626.024 126.172 632.892 126.172C639.692 126.172 645.608 127.668 650.64 130.66C655.74 133.652 659.65 137.902 662.37 143.41C665.158 148.918 666.552 155.412 666.552 162.892C666.552 170.44 665.158 177.002 662.37 182.578C659.65 188.086 655.74 192.37 650.64 195.43C645.608 198.422 639.692 199.918 632.892 199.918ZM632.892 190.738C640.032 190.738 645.574 188.324 649.518 183.496C653.53 178.6 655.536 171.766 655.536 162.994C655.536 154.222 653.564 147.422 649.62 142.594C645.676 137.766 640.1 135.352 632.892 135.352C625.752 135.352 620.176 137.766 616.164 142.594C612.22 147.422 610.248 154.222 610.248 162.994C610.248 171.766 612.22 178.6 616.164 183.496C620.176 188.324 625.752 190.738 632.892 190.738ZM680.77 199V127.09H691.378V159.424H691.582L724.936 127.09H737.992L701.68 161.872L740.032 199H726.772L691.582 165.442H691.378V199H680.77ZM773.108 199V127.09H798.506C810.338 127.09 819.45 130.184 825.842 136.372C832.302 142.56 835.532 151.434 835.532 162.994C835.532 174.554 832.302 183.462 825.842 189.718C819.45 195.906 810.338 199 798.506 199H773.108ZM783.716 190.126H797.894C815.642 190.126 824.516 181.082 824.516 162.994C824.516 144.974 815.642 135.964 797.894 135.964H783.716V190.126ZM849.708 199V127.09H896.22V135.658H859.908V158.2H894.078V166.768H859.908V190.432H896.22V199H849.708ZM909.976 199V127.09H918.85L945.472 176.764L971.992 127.09H980.662V199H971.176V146.266L948.634 187.984H942.208L919.564 146.47V199H909.976ZM1028.84 199.918C1021.97 199.918 1016.02 198.422 1010.99 195.43C1005.96 192.37 1002.05 188.086 999.26 182.578C996.54 177.002 995.18 170.474 995.18 162.994C995.18 155.446 996.54 148.918 999.26 143.41C1002.05 137.902 1005.96 133.652 1010.99 130.66C1016.02 127.668 1021.97 126.172 1028.84 126.172C1035.64 126.172 1041.56 127.668 1046.59 130.66C1051.69 133.652 1055.6 137.902 1058.32 143.41C1061.11 148.918 1062.5 155.412 1062.5 162.892C1062.5 170.44 1061.11 177.002 1058.32 182.578C1055.6 188.086 1051.69 192.37 1046.59 195.43C1041.56 198.422 1035.64 199.918 1028.84 199.918ZM1028.84 190.738C1035.98 190.738 1041.52 188.324 1045.47 183.496C1049.48 178.6 1051.48 171.766 1051.48 162.994C1051.48 154.222 1049.51 147.422 1045.57 142.594C1041.62 137.766 1036.05 135.352 1028.84 135.352C1021.7 135.352 1016.12 137.766 1012.11 142.594C1008.17 147.422 1006.2 154.222 1006.2 162.994C1006.2 171.766 1008.17 178.6 1012.11 183.496C1016.12 188.324 1021.7 190.738 1028.84 190.738Z" fill="white"/>
<path d="M117.712 300.16V258.868H122.61V264.262C123.519 262.402 124.863 260.955 126.64 259.922C128.459 258.847 130.567 258.31 132.964 258.31C135.651 258.31 137.986 258.951 139.97 260.232C141.995 261.472 143.545 263.27 144.62 265.626C145.736 267.941 146.294 270.71 146.294 273.934C146.294 277.117 145.736 279.886 144.62 282.242C143.545 284.557 141.995 286.355 139.97 287.636C137.986 288.917 135.651 289.558 132.964 289.558C130.649 289.558 128.583 289.041 126.764 288.008C124.945 286.975 123.602 285.549 122.734 283.73V300.16H117.712ZM131.91 285.528C134.721 285.528 136.973 284.536 138.668 282.552C140.363 280.527 141.21 277.654 141.21 273.934C141.21 270.173 140.363 267.3 138.668 265.316C136.973 263.332 134.721 262.34 131.91 262.34C129.099 262.34 126.847 263.332 125.152 265.316C123.457 267.3 122.61 270.173 122.61 273.934C122.61 277.654 123.457 280.527 125.152 282.552C126.847 284.536 129.099 285.528 131.91 285.528ZM163.344 289.558C161.278 289.558 159.418 289.165 157.764 288.38C156.152 287.553 154.871 286.437 153.92 285.032C152.97 283.627 152.494 282.056 152.494 280.32C152.494 278.129 153.052 276.393 154.168 275.112C155.326 273.831 157.206 272.921 159.81 272.384C162.456 271.805 166.052 271.516 170.598 271.516H172.582V269.594C172.582 267.031 172.045 265.192 170.97 264.076C169.937 262.919 168.263 262.34 165.948 262.34C164.13 262.34 162.373 262.609 160.678 263.146C158.984 263.642 157.248 264.469 155.47 265.626L153.734 261.968C155.305 260.852 157.206 259.963 159.438 259.302C161.712 258.641 163.882 258.31 165.948 258.31C169.834 258.31 172.706 259.261 174.566 261.162C176.468 263.063 177.418 266.019 177.418 270.028V289H172.706V283.792C171.921 285.569 170.702 286.975 169.048 288.008C167.436 289.041 165.535 289.558 163.344 289.558ZM164.15 285.776C166.63 285.776 168.656 284.929 170.226 283.234C171.797 281.498 172.582 279.307 172.582 276.662V274.802H170.66C167.312 274.802 164.667 274.967 162.724 275.298C160.823 275.587 159.48 276.125 158.694 276.91C157.95 277.654 157.578 278.687 157.578 280.01C157.578 281.705 158.157 283.089 159.314 284.164C160.513 285.239 162.125 285.776 164.15 285.776ZM186.735 289V258.868H191.633V264.262C193.245 260.625 196.552 258.62 201.553 258.248L203.351 258.062L203.723 262.402L200.561 262.774C197.709 263.022 195.539 263.931 194.051 265.502C192.563 267.031 191.819 269.139 191.819 271.826V289H186.735ZM244.472 289.558C240.173 289.558 236.495 288.649 233.436 286.83C230.377 285.011 228.021 282.428 226.368 279.08C224.756 275.732 223.95 271.743 223.95 267.114C223.95 262.526 224.756 258.558 226.368 255.21C228.021 251.862 230.377 249.279 233.436 247.46C236.495 245.641 240.173 244.732 244.472 244.732C247.489 244.732 250.259 245.207 252.78 246.158C255.343 247.109 257.513 248.493 259.29 250.312L257.306 254.466C255.405 252.689 253.421 251.407 251.354 250.622C249.329 249.795 247.076 249.382 244.596 249.382C239.677 249.382 235.916 250.932 233.312 254.032C230.708 257.132 229.406 261.493 229.406 267.114C229.406 272.777 230.708 277.158 233.312 280.258C235.916 283.358 239.677 284.908 244.596 284.908C247.076 284.908 249.329 284.515 251.354 283.73C253.421 282.903 255.405 281.601 257.306 279.824L259.29 283.978C257.513 285.755 255.343 287.14 252.78 288.132C250.259 289.083 247.489 289.558 244.472 289.558ZM275.114 289.558C273.047 289.558 271.187 289.165 269.534 288.38C267.922 287.553 266.641 286.437 265.69 285.032C264.739 283.627 264.264 282.056 264.264 280.32C264.264 278.129 264.822 276.393 265.938 275.112C267.095 273.831 268.976 272.921 271.58 272.384C274.225 271.805 277.821 271.516 282.368 271.516H284.352V269.594C284.352 267.031 283.815 265.192 282.74 264.076C281.707 262.919 280.033 262.34 277.718 262.34C275.899 262.34 274.143 262.609 272.448 263.146C270.753 263.642 269.017 264.469 267.24 265.626L265.504 261.968C267.075 260.852 268.976 259.963 271.208 259.302C273.481 258.641 275.651 258.31 277.718 258.31C281.603 258.31 284.476 259.261 286.336 261.162C288.237 263.063 289.188 266.019 289.188 270.028V289H284.476V283.792C283.691 285.569 282.471 286.975 280.818 288.008C279.206 289.041 277.305 289.558 275.114 289.558ZM275.92 285.776C278.4 285.776 280.425 284.929 281.996 283.234C283.567 281.498 284.352 279.307 284.352 276.662V274.802H282.43C279.082 274.802 276.437 274.967 274.494 275.298C272.593 275.587 271.249 276.125 270.464 276.91C269.72 277.654 269.348 278.687 269.348 280.01C269.348 281.705 269.927 283.089 271.084 284.164C272.283 285.239 273.895 285.776 275.92 285.776ZM298.629 289V258.868H303.527V263.952C304.436 262.133 305.697 260.749 307.309 259.798C308.921 258.806 310.802 258.31 312.951 258.31C317.663 258.31 320.68 260.356 322.003 264.448C322.912 262.547 324.256 261.059 326.033 259.984C327.81 258.868 329.856 258.31 332.171 258.31C338.867 258.31 342.215 262.278 342.215 270.214V289H337.193V270.462C337.193 267.693 336.697 265.667 335.705 264.386C334.754 263.063 333.163 262.402 330.931 262.402C328.492 262.402 326.55 263.27 325.103 265.006C323.656 266.742 322.933 269.057 322.933 271.95V289H317.911V270.462C317.911 267.693 317.415 265.667 316.423 264.386C315.472 263.063 313.881 262.402 311.649 262.402C309.169 262.402 307.206 263.27 305.759 265.006C304.354 266.742 303.651 269.057 303.651 271.95V289H298.629ZM365.183 289.558C360.429 289.558 356.668 288.173 353.899 285.404C351.129 282.593 349.745 278.791 349.745 273.996C349.745 270.896 350.365 268.168 351.605 265.812C352.845 263.415 354.539 261.575 356.689 260.294C358.879 258.971 361.401 258.31 364.253 258.31C368.345 258.31 371.548 259.633 373.863 262.278C376.177 264.882 377.335 268.478 377.335 273.066V274.988H354.643C354.808 278.419 355.8 281.043 357.619 282.862C359.437 284.639 361.959 285.528 365.183 285.528C367.001 285.528 368.737 285.259 370.391 284.722C372.044 284.143 373.615 283.213 375.103 281.932L376.839 285.466C375.475 286.747 373.739 287.76 371.631 288.504C369.523 289.207 367.373 289.558 365.183 289.558ZM364.377 262.03C361.525 262.03 359.272 262.919 357.619 264.696C355.965 266.473 354.994 268.809 354.705 271.702H372.995C372.871 268.643 372.065 266.267 370.577 264.572C369.13 262.877 367.063 262.03 364.377 262.03ZM362.455 254.838L368.841 242.314H374.235L366.051 254.838H362.455ZM393.841 289.558C390.782 289.558 388.467 288.669 386.897 286.892C385.367 285.073 384.603 282.449 384.603 279.018V245.29H389.625V278.646C389.625 283.069 391.381 285.28 394.895 285.28C395.928 285.28 396.858 285.156 397.685 284.908L397.561 289.124C396.279 289.413 395.039 289.558 393.841 289.558ZM402.328 251.366V245.724H408.528V251.366H402.328ZM402.948 289V258.868H407.97V289H402.948ZM430.936 289.558C426.183 289.558 422.422 288.173 419.652 285.404C416.883 282.593 415.498 278.791 415.498 273.996C415.498 270.896 416.118 268.168 417.358 265.812C418.598 263.415 420.293 261.575 422.442 260.294C424.633 258.971 427.154 258.31 430.006 258.31C434.098 258.31 437.302 259.633 439.616 262.278C441.931 264.882 443.088 268.478 443.088 273.066V274.988H420.396C420.562 278.419 421.554 281.043 423.372 282.862C425.191 284.639 427.712 285.528 430.936 285.528C432.755 285.528 434.491 285.259 436.144 284.722C437.798 284.143 439.368 283.213 440.856 281.932L442.592 285.466C441.228 286.747 439.492 287.76 437.384 288.504C435.276 289.207 433.127 289.558 430.936 289.558ZM430.13 262.03C427.278 262.03 425.026 262.919 423.372 264.696C421.719 266.473 420.748 268.809 420.458 271.702H438.748C438.624 268.643 437.818 266.267 436.33 264.572C434.884 262.877 432.817 262.03 430.13 262.03ZM466.962 289V245.29H484.26C488.972 245.29 492.568 246.427 495.048 248.7C497.57 250.973 498.83 254.218 498.83 258.434C498.83 262.609 497.57 265.853 495.048 268.168C492.568 270.441 488.972 271.578 484.26 271.578H472.046V289H466.962ZM472.046 267.3H483.64C490.419 267.3 493.808 264.345 493.808 258.434C493.808 252.482 490.419 249.506 483.64 249.506H472.046V267.3ZM513.487 289.558C511.42 289.558 509.56 289.165 507.907 288.38C506.295 287.553 505.014 286.437 504.063 285.032C503.112 283.627 502.637 282.056 502.637 280.32C502.637 278.129 503.195 276.393 504.311 275.112C505.468 273.831 507.349 272.921 509.953 272.384C512.598 271.805 516.194 271.516 520.741 271.516H522.725V269.594C522.725 267.031 522.188 265.192 521.113 264.076C520.08 262.919 518.406 262.34 516.091 262.34C514.272 262.34 512.516 262.609 510.821 263.146C509.126 263.642 507.39 264.469 505.613 265.626L503.877 261.968C505.448 260.852 507.349 259.963 509.581 259.302C511.854 258.641 514.024 258.31 516.091 258.31C519.976 258.31 522.849 259.261 524.709 261.162C526.61 263.063 527.561 266.019 527.561 270.028V289H522.849V283.792C522.064 285.569 520.844 286.975 519.191 288.008C517.579 289.041 515.678 289.558 513.487 289.558ZM514.293 285.776C516.773 285.776 518.798 284.929 520.369 283.234C521.94 281.498 522.725 279.307 522.725 276.662V274.802H520.803C517.455 274.802 514.81 274.967 512.867 275.298C510.966 275.587 509.622 276.125 508.837 276.91C508.093 277.654 507.721 278.687 507.721 280.01C507.721 281.705 508.3 283.089 509.457 284.164C510.656 285.239 512.268 285.776 514.293 285.776ZM536.878 289V258.868H541.776V264.262C543.388 260.625 546.695 258.62 551.696 258.248L553.494 258.062L553.866 262.402L550.704 262.774C547.852 263.022 545.682 263.931 544.194 265.502C542.706 267.031 541.962 269.139 541.962 271.826V289H536.878ZM568.282 289.558C566.215 289.558 564.355 289.165 562.702 288.38C561.09 287.553 559.809 286.437 558.858 285.032C557.907 283.627 557.432 282.056 557.432 280.32C557.432 278.129 557.99 276.393 559.106 275.112C560.263 273.831 562.144 272.921 564.748 272.384C567.393 271.805 570.989 271.516 575.536 271.516H577.52V269.594C577.52 267.031 576.983 265.192 575.908 264.076C574.875 262.919 573.201 262.34 570.886 262.34C569.067 262.34 567.311 262.609 565.616 263.146C563.921 263.642 562.185 264.469 560.408 265.626L558.672 261.968C560.243 260.852 562.144 259.963 564.376 259.302C566.649 258.641 568.819 258.31 570.886 258.31C574.771 258.31 577.644 259.261 579.504 261.162C581.405 263.063 582.356 266.019 582.356 270.028V289H577.644V283.792C576.859 285.569 575.639 286.975 573.986 288.008C572.374 289.041 570.473 289.558 568.282 289.558ZM569.088 285.776C571.568 285.776 573.593 284.929 575.164 283.234C576.735 281.498 577.52 279.307 577.52 276.662V274.802H575.598C572.25 274.802 569.605 274.967 567.662 275.298C565.761 275.587 564.417 276.125 563.632 276.91C562.888 277.654 562.516 278.687 562.516 280.01C562.516 281.705 563.095 283.089 564.252 284.164C565.451 285.239 567.063 285.776 569.088 285.776ZM603.143 289.558C600.456 289.558 598.1 288.917 596.075 287.636C594.091 286.355 592.541 284.557 591.425 282.242C590.35 279.886 589.813 277.117 589.813 273.934C589.813 270.71 590.35 267.941 591.425 265.626C592.541 263.27 594.091 261.472 596.075 260.232C598.1 258.951 600.456 258.31 603.143 258.31C605.499 258.31 607.566 258.827 609.343 259.86C611.162 260.893 612.505 262.319 613.373 264.138V245.29H618.395V289H613.497V283.482C612.629 285.383 611.286 286.871 609.467 287.946C607.648 289.021 605.54 289.558 603.143 289.558ZM604.197 285.528C607.008 285.528 609.26 284.536 610.955 282.552C612.65 280.527 613.497 277.654 613.497 273.934C613.497 270.173 612.65 267.3 610.955 265.316C609.26 263.332 607.008 262.34 604.197 262.34C601.345 262.34 599.072 263.332 597.377 265.316C595.724 267.3 594.897 270.173 594.897 273.934C594.897 277.654 595.724 280.527 597.377 282.552C599.072 284.536 601.345 285.528 604.197 285.528ZM627.199 251.366V245.724H633.399V251.366H627.199ZM627.819 289V258.868H632.841V289H627.819ZM652.398 289.558C650.042 289.558 647.81 289.227 645.702 288.566C643.594 287.905 641.858 286.975 640.494 285.776L642.106 282.242C643.594 283.441 645.226 284.329 647.004 284.908C648.822 285.445 650.662 285.714 652.522 285.714C654.878 285.714 656.655 285.28 657.854 284.412C659.052 283.544 659.652 282.366 659.652 280.878C659.652 279.721 659.259 278.811 658.474 278.15C657.688 277.447 656.448 276.91 654.754 276.538L649.112 275.298C643.986 274.182 641.424 271.537 641.424 267.362C641.424 264.634 642.498 262.443 644.648 260.79C646.838 259.137 649.69 258.31 653.204 258.31C655.27 258.31 657.234 258.641 659.094 259.302C660.995 259.922 662.566 260.852 663.806 262.092L662.132 265.626C660.933 264.51 659.528 263.663 657.916 263.084C656.345 262.464 654.774 262.154 653.204 262.154C650.889 262.154 649.132 262.609 647.934 263.518C646.735 264.427 646.136 265.626 646.136 267.114C646.136 269.429 647.665 270.917 650.724 271.578L656.366 272.756C659.011 273.335 661.016 274.265 662.38 275.546C663.744 276.786 664.426 278.481 664.426 280.63C664.426 283.399 663.33 285.59 661.14 287.202C658.949 288.773 656.035 289.558 652.398 289.558Z" fill="white"/>
</g>
<defs>
<linearGradient id="paint0_linear_26_13" x1="977" y1="294" x2="979" y2="540" gradientUnits="userSpaceOnUse">
<stop stop-color="white" stop-opacity="0"/>
<stop offset="1" stop-color="white" stop-opacity="0.5"/>
</linearGradient>
<clipPath id="clip0_26_13">
<rect width="1920" height="540" rx="20" fill="white"/>
</clipPath>
</defs>
</svg>
