<svg width="514" height="513" viewBox="0 0 514 513" fill="none" xmlns="http://www.w3.org/2000/svg">
<path fill-rule="evenodd" clip-rule="evenodd" d="M509.684 4.29946C512.239 6.84927 513.618 10.3462 513.492 13.9532C510.545 98.4313 495.65 231.342 383.409 311.349C385.176 327.655 379.432 344.369 370.881 359.548C360.457 378.05 344.603 396.562 327.225 413.368C292.63 446.826 249.42 475.954 223.982 486.508C218.381 488.831 211.918 486.975 208.405 482.033C204.891 477.091 205.261 470.377 209.295 465.85C243.787 427.152 252.824 386.908 256.52 357.438C231.72 345.31 210.265 327.38 198.542 314.424C191.24 307.01 180.433 294.818 171.325 282.382C166.731 276.11 162.365 269.5 159.09 263.22C157.978 261.088 156.866 258.762 155.902 256.323C126.807 258.193 89.0146 268.818 48.0102 304.327C43.0594 308.615 35.6924 308.55 30.8179 304.176C25.9434 299.802 25.0836 292.485 28.8115 287.1C29.5129 286.087 31.0812 283.361 34.032 278.232L34.2826 277.797C37.1836 272.754 40.9881 266.175 45.5975 258.639C54.8036 243.588 67.3015 224.585 82.5559 205.905C111.077 170.98 151.874 133.921 201.144 130.728C279.715 23.032 405.411 3.97621 500.024 0.508673C503.631 0.376486 507.13 1.74965 509.684 4.29946ZM179.164 243.957C179.253 244.337 179.384 244.805 179.571 245.366C180.088 246.918 180.929 248.868 182.144 251.198C184.583 255.875 188.123 261.315 192.3 267.018C200.645 278.412 210.718 289.754 217.247 296.363C217.389 296.506 217.528 296.653 217.663 296.803C228.003 308.293 248.538 325.313 271.466 335.745C307.565 325.508 337.007 310.856 361.834 294.653C463.253 226.853 482.593 111.925 486.908 27.1233C394.86 32.0575 286.025 54.2936 218.748 150.82C201.548 176.711 188.863 205.764 179.164 243.957ZM182.771 160.481C152.914 169.792 125.556 194.355 102.694 222.351C95.0554 231.704 88.1156 241.198 81.9561 250.225C109.133 236.705 134.336 231.472 155.874 230.28C163.054 203.821 171.832 181.112 182.771 160.481ZM356.063 328.569C334.716 340.605 310.439 351.366 282.448 359.633C279.963 379.943 275.047 406.231 261.563 434.182C277.303 422.899 294.015 409.316 309.15 394.679C325.584 378.785 339.511 362.259 348.228 346.786C351.978 340.13 354.552 334.057 356.063 328.569ZM376.196 141.426C364.085 125.682 340.548 123.194 323.403 136.322C305.519 150.015 303.992 179.197 320.668 195.783C335.585 210.62 358.219 209.679 374.091 193.03C388.392 178.028 387.785 156.492 376.196 141.426ZM307.597 115.678C334.727 94.9058 374.916 97.1186 396.804 125.574C415.215 149.508 417.142 185.551 392.909 210.97C368.361 236.72 328.948 240.69 302.332 214.217C275.204 187.235 276.427 139.544 307.597 115.678ZM136.409 361.373C130.959 358.043 125.366 356.471 120.105 357.99C111.035 360.608 101.494 367.12 91.7484 377.403C82.077 387.608 72.8793 400.815 64.3894 415.552C52.9524 435.404 43.1826 457.355 35.4911 477.066C54.3298 469.552 75.2204 460.554 94.5042 450.127C109.015 442.281 122.252 433.815 132.849 424.828C143.526 415.772 150.843 406.757 154.504 397.991C156.878 392.306 155.65 385.73 152.267 379.021C150.658 375.83 148.792 373.098 147.308 371.155C146.576 370.197 145.964 369.464 145.561 369C145.361 368.768 145.214 368.606 145.134 368.518C145.101 368.482 145.079 368.458 145.07 368.448C144.971 368.344 144.874 368.238 144.779 368.131C144.772 368.124 144.759 368.11 144.741 368.09C144.682 368.026 144.564 367.899 144.39 367.72C144.04 367.361 143.475 366.8 142.722 366.119C141.193 364.735 139.015 362.966 136.409 361.373ZM164.078 350.709C164.148 350.784 164.233 350.876 164.333 350.985C164.556 351.229 164.852 351.56 165.208 351.971C165.919 352.791 166.877 353.941 167.973 355.377C170.146 358.222 172.967 362.325 175.483 367.315C180.35 376.967 185.122 392.141 178.496 408.009C172.657 421.992 162.036 434.165 149.666 444.656C137.216 455.216 122.297 464.657 106.871 472.998C76.0578 489.659 41.7693 502.69 18.1066 511.656C13.4045 513.438 8.09655 512.349 4.47672 508.858C0.856893 505.368 -0.425547 500.104 1.18367 495.34C9.73219 470.033 23.6759 434.138 41.8606 402.573C50.954 386.789 61.3188 371.714 72.8766 359.519C84.3602 347.401 97.7145 337.392 112.895 333.01C128.134 328.611 141.541 334.039 149.966 339.188C154.298 341.835 157.775 344.676 160.169 346.842C161.377 347.935 162.339 348.884 163.026 349.591C163.371 349.945 163.648 350.24 163.856 350.465C163.942 350.559 164.016 350.64 164.078 350.709Z" fill="#FF4785"/>
</svg>
