<svg width="876" height="432" viewBox="0 0 876 432" fill="none" xmlns="http://www.w3.org/2000/svg">
<path d="M876 216C876 273.5 679.901 432 438 432C196.099 432 0 281.5 0 216C0 150.5 196.099 0 438 0C679.901 0 876 158.5 876 216Z" fill="#FF3C92" fill-opacity="0.5"/>
<circle cx="437.5" cy="215.5" r="161.5" fill="#FF3C92" fill-opacity="0.5"/>
<g style="mix-blend-mode:overlay">
<path d="M599 215.5C599 126.306 526.694 54 437.5 54C390.56 54 348.297 74.0258 318.789 106L547 334.211C578.974 304.703 599 262.44 599 215.5Z" fill="#FF3C92"/>
</g>
<circle cx="437.5" cy="215.5" r="100.5" fill="#FF3C92" fill-opacity="0.5"/>
<g style="mix-blend-mode:overlay">
<path d="M538 215.285C538 159.899 493.101 115 437.715 115C408.567 115 382.323 127.435 364 147.29L505.71 289C525.565 270.677 538 244.433 538 215.285Z" fill="#FF0D78"/>
</g>
</svg>
