<svg width="487" height="487" viewBox="0 0 487 487" fill="none" xmlns="http://www.w3.org/2000/svg">
<path d="M487 243.5C487 377.981 377.981 487 243.5 487C109.019 487 0 377.981 0 243.5C0 109.019 109.019 0 243.5 0C377.981 0 487 109.019 487 243.5Z" fill="#FF3C92" fill-opacity="0.5"/>
<circle cx="243.5" cy="243.5" r="110.5" fill="#FA509B" fill-opacity="0.5"/>
<path d="M243.5 67C146.022 67 67 146.022 67 243.5H420C420 146.022 340.978 67 243.5 67Z" fill="#F563A3" fill-opacity="0.5"/>
<path d="M243.5 133C182.473 133 133 182.696 133 244H354C354 182.696 304.527 133 243.5 133Z" fill="#F563A3" fill-opacity="0.75"/>
<path d="M182.823 217.516C168.561 251.959 184.922 291.442 219.365 305.704C251.149 318.864 287.224 305.949 303.812 276.812C303.812 276.812 400 109.5 402.685 103.449C405.37 97.3986 399.002 87.4912 390.501 89.7456C382 92 214.14 183.401 214.14 183.401C200.489 190.464 189.163 202.203 182.823 217.516Z" fill="#FF3C92"/>
</svg>
